<svg id="Capa_1" enable-background="new 0 0 497 497" height="512" viewBox="0 0 497 497" width="512" xmlns="http://www.w3.org/2000/svg"><g><path d="m404.74 124.25h-69.507c-2.9 0-5.362-2.08-5.897-4.931-10.155-54.171-57.967-95.069-115.225-94.463-63.744.676-114.711 53.371-114.711 117.118v9.409c0 3.314-2.686 6-6 6h-17.914c-41.107 0-75.179 32.879-75.484 73.985-.307 41.432 33.187 75.116 74.548 75.116h331.333c50.552 0 91.49-41.168 91.114-91.808-.372-50.24-42.016-90.426-92.257-90.426z" fill="#c8effe"/><g fill="#99e2fc"><path d="m404.74 124.25h-23c50.241 0 91.885 40.186 92.258 90.426.375 50.639-40.562 91.808-91.114 91.808h23c50.552 0 91.49-41.168 91.114-91.808-.373-50.24-42.017-90.426-92.258-90.426z"/><path d="m306.336 119.319c.534 2.851 2.996 4.931 5.897 4.931h23c-2.9 0-5.362-2.08-5.897-4.931-10.155-54.171-57.967-95.069-115.225-94.463-3.438.036-6.835.233-10.192.566 51.461 5.091 93.029 43.821 102.417 93.897z"/></g><g fill="#c8effe"><path d="m98.319 366.905-10.267-18.093c-2.299-4.052-8.137-4.052-10.437 0l-10.267 18.093c-.897 2.374-1.293 4.993-.969 7.752.956 8.131 7.927 14.492 16.113 14.657 9.306.187 16.908-7.3 16.908-16.563 0-2.062-.394-4.026-1.081-5.846z"/><path d="m181.152 449.738-10.267-18.093c-2.299-4.052-8.137-4.052-10.437 0l-10.267 18.093c-.897 2.374-1.293 4.993-.969 7.752.956 8.131 7.927 14.492 16.113 14.656 9.306.187 16.908-7.3 16.908-16.563 0-2.06-.393-4.025-1.081-5.845z"/><path d="m346.819 449.738-10.267-18.093c-2.299-4.052-8.137-4.052-10.437 0l-10.267 18.093c-.897 2.374-1.293 4.993-.969 7.752.957 8.131 7.927 14.492 16.113 14.656 9.306.187 16.908-7.3 16.908-16.563 0-2.06-.394-4.025-1.081-5.845z"/><path d="m429.652 366.905-10.267-18.093c-2.299-4.052-8.137-4.052-10.437 0l-10.267 18.093c-.897 2.374-1.293 4.993-.969 7.752.957 8.131 7.927 14.492 16.113 14.657 9.306.187 16.908-7.3 16.908-16.563 0-2.062-.393-4.026-1.081-5.846z"/><path d="m263.986 366.905-10.267-18.093c-2.299-4.052-8.137-4.052-10.437 0l-10.267 18.093c-.897 2.374-1.293 4.993-.969 7.752.956 8.131 7.927 14.492 16.113 14.657 9.306.187 16.908-7.3 16.908-16.563 0-2.062-.394-4.026-1.081-5.846z"/></g><path d="m149.1 157.384c4.143 0 7.5-3.357 7.5-7.5s-3.357-7.5-7.5-7.5h-49.7v8.999c0 3.314-2.686 6-6 6h-17.914c-.007 0-.013.001-.019.001z" fill="#99e2fc"/></g></svg>