<?xml version="1.0" encoding="iso-8859-1"?>
<!-- Generator: Adobe Illustrator 21.0.0, SVG Export Plug-In . SVG Version: 6.00 Build 0)  -->
<svg version="1.1" id="Capa_1" xmlns="http://www.w3.org/2000/svg" xmlns:xlink="http://www.w3.org/1999/xlink" x="0px" y="0px"
	 viewBox="0 0 512 512" style="enable-background:new 0 0 512 512;" xml:space="preserve">
<path style="fill:#FF812D;" d="M427.06,294.16c28.314-14.984,56.627,5.606,84.94-22.707c-43.006,0-46.122-39.889-83.358-45.66
	c20.424-24.679,54.462-16.491,69.785-53.484c-39.732,16.457-57.877-19.203-94.486-10.283c9.425-30.616,44.005-36.077,44.005-76.118
	c-30.41,30.41-60.82,4.407-91.229,26.657c-3.008-31.892,26.85-50.171,11.527-87.165c-16.457,39.732-54.503,27.347-74.083,59.54
	C279.176,56.627,299.766,28.314,271.453,0c0,43.006-39.889,46.122-45.659,83.358c-24.679-20.424-16.491-54.462-53.484-69.785
	c16.457,39.732-19.203,57.877-10.283,94.486c-30.616-9.425-36.077-44.005-76.118-44.005c30.41,30.41,4.408,60.82,26.657,91.23
	c-31.892,3.008-50.171-26.85-87.165-11.527c39.732,16.457,27.347,54.503,59.54,74.083C56.627,232.824,28.313,212.234,0,240.547
	c43.006,0,46.122,39.889,83.358,45.66c-20.424,24.679-54.462,16.491-69.785,53.484c39.732-16.457,57.877,19.203,94.486,10.283
	c-9.425,30.616-44.005,36.077-44.005,76.118c30.41-30.41,60.82-4.408,91.229-26.657c3.008,31.892-26.85,50.171-11.527,87.165
	c16.457-39.732,54.503-27.347,74.083-59.54c14.984,28.314-5.606,56.627,22.707,84.94c0-43.006,39.889-46.122,45.659-83.358
	c24.679,20.424,16.491,54.462,53.484,69.784c-16.457-39.732,19.203-57.877,10.283-94.486c30.616,9.425,36.077,44.005,76.118,44.005
	c-30.41-30.41-4.408-60.82-26.657-91.23c31.892-3.008,50.171,26.85,87.165,11.527C446.868,351.785,459.253,313.741,427.06,294.16z"
	/>
<path style="fill:#FFB833;" d="M256,111.775v288.451c79.654,0,144.225-64.572,144.225-144.225S335.654,111.775,256,111.775z"/>
<path style="fill:#FFCE53;" d="M369.32,256c0-79.654-50.735-144.225-113.32-144.225c-79.654,0-144.225,64.572-144.225,144.225
	S176.346,400.225,256,400.225C318.585,400.225,369.32,335.654,369.32,256z"/>
<path style="fill:#FFE373;" d="M256,142.68v226.64c62.585,0,113.32-50.735,113.32-113.32S318.585,142.68,256,142.68z"/>
<path style="fill:#FFE9B0;" d="M338.414,256c0-62.585-36.898-113.32-82.415-113.32c-62.585,0-113.32,50.735-113.32,113.32
	S193.415,369.32,256,369.32C301.516,369.32,338.414,318.585,338.414,256z"/>
<g>
</g>
<g>
</g>
<g>
</g>
<g>
</g>
<g>
</g>
<g>
</g>
<g>
</g>
<g>
</g>
<g>
</g>
<g>
</g>
<g>
</g>
<g>
</g>
<g>
</g>
<g>
</g>
<g>
</g>
</svg>
